<?xml version="1.0" encoding="UTF-8" standalone="yes"?>
<!-- Created with sK1/UniConvertor (http://sk1project.org/) -->
<svg xmlns="http://www.w3.org/2000/svg" xmlns:xlink="http://www.w3.org/1999/xlink"
  width="595.276pt" height="841.89pt" viewBox="0 0 595.276 841.89"
  fill-rule="evenodd">
<g>
<g>
<defs><linearGradient id="1" x1="309.132" y1="164.514" x2="309.132" y2="733.53" gradientUnits="userSpaceOnUse">
<stop offset="0" style="stop-color:#e21c2a"/>
<stop offset="0.00066071" style="stop-color:#e21c2a"/>
<stop offset="1" style="stop-color:#a92c30"/>
</linearGradient>
</defs><path style="stroke:none; fill:url(#1)" d="M 309.096 164.514L 593.64 164.514L 593.64 733.53L 309.096 733.53L 309.096 558.282C 459.576 558.282 581.616 509.322 581.616 448.986C 581.616 388.722 459.576 339.762 309.096 339.762L 309.096 164.514zM 24.624 164.514L 309.096 164.514L 309.096 339.762C 158.688 339.762 36.648 388.65 36.648 448.914C 36.648 509.25 158.688 558.21 309.096 558.282L 309.096 733.53L 24.624 733.53L 24.624 164.514z"/>
<g>
<path style="stroke:none; fill:#7a7c75" d="M 535.392 426.522L 541.008 455.538L 535.752 456.762L 496.08 456.762L 491.976 454.17L 491.976 456.762L 449.136 456.762L 444.744 454.602L 444.744 456.762L 355.32 456.762L 350.496 454.17L 350.496 457.122L 305.208 457.122L 305.208 439.482L 325.44 439.482L 325.44 426.882L 348.12 426.882L 348.12 438.906L 419.04 438.906L 419.04 427.242L 444.384 427.242L 444.384 439.482L 467.064 439.482L 467.064 426.738L 489.744 426.738L 489.744 439.122L 512.424 439.122L 512.424 426.738L 535.392 426.522z"/>
<path style="stroke:none; fill:#7a7c75" d="M 222.984 426.522L 227.376 456.402L 217.584 457.122L 185.112 457.122L 178.992 453.306L 178.992 457.338L 139.32 457.338L 139.32 471.954L 134.136 474.69L 87.048 474.69L 82.08 465.69L 79.488 451.794L 79.488 442.218L 98.136 442.218L 100.872 447.33L 100.872 456.978L 118.8 456.978L 113.832 401.538L 132.624 401.538L 137.088 439.482L 156.672 439.482L 156.672 427.098L 179.352 427.098L 179.352 439.266L 199.512 439.266L 199.512 427.098L 222.984 426.522z"/>
<path style="stroke:none; fill:#7a7c75" d="M 152.208 419.466L 174.384 419.466L 174.384 413.922L 152.208 413.922L 152.208 419.466z"/>
<path style="stroke:none; fill:#7a7c75" d="M 197.568 411.474L 219.528 401.538L 219.672 404.274L 197.64 414.21L 197.568 411.474z"/>
<path style="stroke:none; fill:#7a7c75" d="M 207.432 470.226L 229.608 470.226L 229.608 464.682L 207.432 464.682L 207.432 470.226z"/>
<path style="stroke:none; fill:#7a7c75" d="M 325.872 470.01L 348.048 470.01L 348.048 464.466L 325.872 464.466L 325.872 470.01z"/>
<path style="stroke:none; fill:#009240" d="M 293.04 439.266L 294.048 442.362L 297.288 442.362L 294.696 444.306L 295.632 447.33L 293.04 445.458L 290.52 447.33L 291.456 444.306L 288.864 442.362L 292.104 442.362L 293.04 439.266L 293.04 439.266zM 293.544 440.85M 295.632 442.362M 295.992 443.37M 295.2 445.89M 294.336 446.394M 291.744 446.394M 290.952 445.89M 290.16 443.37M 290.52 442.362M 292.608 440.85"/>
<path style="stroke:none; fill:#009240" d="M 293.544 451.218L 294.552 454.314L 297.792 454.314L 295.2 456.258L 296.136 459.354L 293.544 457.41L 290.952 459.354L 291.96 456.258L 289.368 454.314L 292.608 454.314L 293.544 451.218L 293.544 451.218zM 294.048 452.73M 296.136 454.314M 296.496 455.25M 295.632 457.77M 294.84 458.346M 292.248 458.346M 291.456 457.77M 290.664 455.25M 290.952 454.314M 293.04 452.73"/>
<path style="stroke:none; fill:#2c2c2b" d="M 277.992 475.266L 278.208 476.346L 284.472 476.346L 285.984 476.058L 287.784 475.554L 289.224 475.122L 290.592 474.69L 293.256 473.466L 296.136 471.666L 298.296 469.866L 300.528 467.634L 301.32 466.77L 302.4 465.33L 303.264 464.178L 304.2 462.594L 305.208 459.858L 306 457.122L 306 438.69L 306 437.898L 305.784 436.89L 305.496 435.81L 304.92 434.37L 303.912 432.138L 302.832 429.834L 301.176 426.882L 290.448 426.882L 293.832 430.842L 295.92 433.794L 297.936 436.962L 299.736 440.706L 300.672 443.514L 301.32 445.962L 301.608 448.266L 301.68 450.642L 301.464 453.162L 301.032 455.538L 300.672 457.554L 300.312 458.706L 299.88 460.074L 299.376 461.37L 298.728 462.378L 298.008 463.458L 297.216 464.538L 296.424 465.618L 295.416 466.77L 293.976 468.282L 293.184 469.146L 292.464 469.794L 291.672 470.514L 290.808 471.162L 289.08 472.242L 288.072 472.818L 287.136 473.322L 286.416 473.61L 285.264 474.042L 284.328 474.33L 283.32 474.546L 281.952 474.762L 277.992 475.266z"/>
<path style="stroke:none; fill:#e21c2a" d="M 282.168 427.098L 267.12 426.882L 269.784 430.338L 271.872 433.362L 273.888 436.458L 275.328 438.834L 276.48 441.21L 277.416 443.802L 277.92 445.89L 278.496 449.274L 278.712 451.506L 278.64 454.602L 278.568 455.538L 278.424 456.33L 278.136 457.554L 277.776 458.85L 277.56 459.714L 277.272 460.218L 276.84 460.794L 275.832 461.946L 273.816 463.746L 271.512 465.042L 268.704 466.266L 266.256 466.914L 263.304 467.49L 261.648 467.706L 259.056 467.706L 255.96 467.49L 253.44 467.058L 251.352 466.482L 248.904 465.762L 246.528 464.754L 242.496 462.594L 239.976 461.082L 236.088 458.562L 230.04 454.17L 226.152 451.074L 220.392 446.394L 216.432 443.082L 211.32 438.906L 207.36 435.45L 203.76 432.21L 200.592 428.97L 197.064 424.794L 193.824 420.906L 190.368 416.298L 186.264 410.97L 184.968 412.266L 186.696 416.73L 191.16 424.866L 195.624 432.066L 199.512 437.97L 205.992 445.818L 215.496 455.25L 227.664 464.682L 235.872 471.018L 238.536 472.458L 240.84 473.61L 243.216 474.762L 246.6 475.914L 251.28 477.138L 254.376 477.57L 259.056 477.93L 271.944 477.786L 272.736 477.714L 273.816 477.498L 274.968 477.21L 276.12 476.778L 277.704 476.058L 279.432 475.122L 280.368 474.546L 281.16 473.826L 281.952 473.034L 283.176 471.81L 284.76 469.794L 285.624 468.498L 286.632 466.914L 287.856 464.61L 288.72 462.594L 289.44 460.074L 289.944 457.914L 290.304 455.178L 290.376 451.938L 290.088 448.122L 289.872 446.322L 289.224 444.018L 288.144 440.274L 287.64 438.762L 286.92 436.53L 285.912 434.082L 284.616 430.914L 283.176 428.61L 282.168 427.098z"/>
<path style="stroke:none; fill:#7a7c75" d="M 425.808 502.986L 425.808 496.074L 428.76 496.074L 427.824 484.266L 427.752 484.266L 425.808 489.018L 425.808 475.77L 433.8 475.77L 438.336 508.314L 429.696 508.314L 429.264 502.986L 425.808 502.986L 425.808 502.986zM 468.432 475.77L 466.992 483.762L 457.776 483.762L 453.096 508.314L 444.24 508.314L 448.92 483.762L 440.064 483.762L 441.504 475.77L 468.432 475.77L 468.432 475.77zM 519.264 500.394L 517.824 508.314L 494.856 508.314L 500.904 475.77L 509.76 475.77L 505.152 500.394L 519.264 500.394zM 425.808 475.77L 425.808 489.018L 422.856 496.074L 425.808 496.074L 425.808 502.986L 419.976 502.986L 417.816 508.314L 409.392 508.314L 409.392 506.082L 424.368 475.77L 425.808 475.77L 425.808 475.77zM 409.392 481.674L 410.544 475.77L 409.392 475.77L 409.392 481.674zM 409.392 475.77L 409.392 481.674L 404.424 508.314L 395.496 508.314L 401.616 475.77L 409.392 475.77L 409.392 475.77zM 409.392 506.082L 408.312 508.314L 409.392 508.314L 409.392 506.082L 409.392 506.082zM 381.384 503.706L 381.384 488.946C 382.464 488.874 383.256 488.73 383.688 488.586C 384.48 488.298 385.128 487.794 385.488 487.074C 385.92 486.354 386.136 485.706 386.136 485.058C 386.136 484.194 385.848 483.546 385.416 483.114C 384.912 482.61 383.904 482.394 382.248 482.394L 381.384 482.394L 381.384 475.77L 386.424 475.77C 389.232 475.77 391.248 476.634 392.544 478.29C 393.84 479.946 394.488 481.962 394.488 484.338C 394.488 486.858 393.84 489.09 392.4 491.034C 391.032 492.906 388.872 494.13 385.848 494.634C 387.648 496.29 389.736 500.898 392.256 508.314L 382.968 508.314C 382.464 506.874 381.96 505.362 381.384 503.706zM 381.384 475.77L 381.384 482.394L 377.784 482.394L 376.56 489.018L 378.288 489.018C 379.44 489.018 380.52 489.018 381.384 488.946L 381.384 503.706C 381.024 502.698 380.592 501.69 380.232 500.61C 379.152 497.802 378.36 496.218 377.856 495.786C 377.28 495.354 376.632 495.138 375.912 495.138L 375.408 495.138L 373.032 508.314L 365.832 508.314L 365.832 499.458L 370.224 475.77L 381.384 475.77L 381.384 475.77zM 365.832 478.218L 367.488 475.77L 365.832 475.77L 365.832 478.218zM 332.784 484.842L 324.504 485.346C 324.36 482.538 322.92 481.098 320.4 481.098C 319.32 481.098 318.528 481.386 317.952 481.89C 317.376 482.394 317.088 482.97 317.088 483.69C 317.088 484.194 317.376 484.698 317.808 485.202C 318.24 485.634 319.32 486.21 321.048 486.93C 323.208 487.938 324.936 488.802 326.232 489.666C 327.6 490.458 328.68 491.61 329.544 492.906C 330.408 494.274 330.84 495.93 330.84 497.946C 330.84 499.89 330.408 501.618 329.472 503.274C 328.536 504.93 327.168 506.226 325.44 507.306C 323.712 508.386 321.264 508.89 318.024 508.89C 313.488 508.89 310.32 507.882 308.448 505.938C 306.504 503.922 305.64 501.402 305.64 498.306L 305.64 497.514L 313.848 496.866C 313.848 498.882 314.28 500.322 315 501.186C 315.792 502.05 316.872 502.41 318.312 502.41C 319.68 502.41 320.76 502.05 321.48 501.402C 322.2 500.682 322.56 499.89 322.56 499.026C 322.56 498.378 322.344 497.73 321.84 497.154C 321.408 496.578 320.256 495.93 318.456 495.21C 314.28 493.482 311.616 491.898 310.536 490.458C 309.384 489.018 308.808 487.218 308.808 485.202C 308.808 483.33 309.312 481.674 310.248 480.09C 311.112 478.578 312.48 477.354 314.208 476.49C 315.936 475.698 318.024 475.266 320.472 475.266C 328.176 475.266 332.28 478.434 332.784 484.842L 332.784 484.842zM 365.832 475.77L 365.832 478.218L 353.736 496.074L 351.504 508.314L 342.648 508.314L 344.952 495.786L 336.456 475.77L 345.672 475.77L 349.992 487.794L 357.408 475.77L 365.832 475.77L 365.832 475.77zM 365.832 499.458L 364.176 508.314L 365.832 508.314L 365.832 499.458z"/>
<path style="stroke:none; fill:#e21c2a" d="M 484.416 494.202C 485.784 493.266 487.08 492.186 488.232 490.962C 491.544 487.578 493.2 483.978 493.2 480.162C 493.2 478.866 492.912 477.858 492.336 476.994C 491.616 476.274 490.68 475.914 489.672 475.914C 487.872 475.914 486.144 476.706 484.416 478.362L 484.416 474.69C 486.648 473.754 488.736 473.25 490.68 473.25C 493.272 473.25 495.432 473.97 497.232 475.41C 498.888 476.922 499.68 478.794 499.68 480.954C 499.68 484.554 497.448 488.082 493.056 491.61C 490.824 493.482 488.232 495.066 485.352 496.578C 484.992 496.722 484.704 496.866 484.416 497.01L 484.416 494.202L 484.416 494.202zM 484.416 512.85C 488.376 512.418 492.408 510.978 496.656 508.098C 499.248 506.298 501.84 503.706 504.288 501.114C 506.664 498.666 507.888 497.01 510.336 493.698C 511.272 492.402 511.992 491.178 512.928 489.882C 513.648 488.874 514.512 487.794 515.016 486.714C 515.808 485.058 522.432 474.186 522.288 473.178L 522.216 472.386L 522 471.882C 516.6 480.954 505.152 497.514 499.68 502.41C 494.136 507.378 489.024 509.826 484.416 509.826L 484.416 509.826L 484.416 512.85zM 475.56 497.874C 475.848 497.802 476.208 497.73 476.496 497.658C 479.448 496.938 482.04 495.714 484.416 494.202L 484.416 497.01C 481.752 498.306 478.8 499.458 475.56 500.466C 475.56 503.418 476.28 505.722 477.72 507.378C 479.088 509.034 481.824 509.826 484.416 509.826L 484.416 512.85C 483.48 512.994 482.616 513.066 481.68 513.066C 477.864 513.066 473.976 511.842 471.6 509.322C 469.44 507.018 468.36 503.922 468.216 500.178L 468.216 500.538L 468.216 500.538L 468.216 499.89L 468.216 498.306C 468.36 495.642 469.008 492.906 470.16 490.242C 471.384 487.29 473.184 484.41 475.56 481.53C 477.576 479.01 480.024 476.994 482.904 475.41C 483.408 475.122 483.912 474.906 484.416 474.69L 484.416 478.362C 483.336 479.37 482.256 480.666 481.176 482.25C 479.736 484.41 478.584 486.786 477.648 489.378C 476.712 492.042 475.992 494.85 475.56 497.874zM 468.216 498.306L 468.216 499.89L 468.216 499.314C 468.216 499.242 467.208 499.386 466.992 499.386C 466.776 499.386 466.488 499.386 466.2 499.386L 464.256 499.242L 462.096 498.882L 460.872 498.45L 459.864 497.802L 457.848 495.858L 456.696 495.786L 455.904 495.786L 457.056 497.226L 457.776 498.018L 458.784 498.882L 459.864 499.458L 461.016 499.89L 463.176 500.466L 464.904 500.682L 466.128 500.754L 467.352 500.682L 468.216 500.538L 468.216 500.178C 468.216 499.818 468.216 499.53 468.216 499.242C 468.216 498.882 468.216 498.594 468.216 498.306z"/>
</g>
</g>
</g>
</svg>